<?xml version="1.0" standalone="yes"?>
<svg xmlns="http://www.w3.org/2000/svg" width="128" height="128">
<path style="fill:#381917; stroke:none;" d="M0 0L0 128L128 128L128 0L0 0z"/>
<path style="fill:#c3260f; stroke:none;" d="M22 0L23 1L22 0M32 2L33 3L32 2M36 4L37 5L36 4M18 7L21 6L18 7M107 5L107 6L110 7L107 5z"/>
<path style="fill:#f74e0f; stroke:none;" d="M9 58C28.997 58.0552 53.9951 68.0752 63 87L65 87C74.0608 67.9578 98.8954 58.0555 119 58C116.115 44.8574 117.462 31.2111 113.842 18C112.753 14.0278 111.172 6.41019 105.956 6.47376C86.7165 6.70824 81.2009 32 64 32C46.7604 32 41.2616 6.85453 22.0432 6.47685C16.6554 6.37097 15.2353 13.9539 14.1551 18C10.6232 31.2292 11.7172 44.7645 9 58z"/>
<path style="fill:#c3260f; stroke:none;" d="M23 6L24 7L23 6M40 6L42 8L40 6M103.667 6.33334L104.333 6.66666L103.667 6.33334M26 7L27 8L26 7M86 7L87 8L86 7M101 7L102 8L101 7M117 7L118 8L117 7M17 8L18 9L17 8M28.6667 8.33334L29.3333 8.66666L28.6667 8.33334M98 8L99 9L98 8M110 8L111 9L110 8M31 9L32 10L31 9M43 9L44 10L43 9M96 9L97 10L96 9M9 10L8 13L9 13L9 10M16 10L17 11L16 10M33 10L34 11L33 10M45 10L46 11L45 10M94 10L95 11L94 10M111.333 10.6667L111.667 11.3333L111.333 10.6667M35 11L36 12L35 11M92 11L93 12L92 11M36 12L37 13L36 12M91 12L92 13L91 12M15 13L16 14L15 13M38 13L39 14L38 13M79 13L80 14L79 13M89 13L90 14L89 13M112 13L113 14L112 13M119 13L120 14L119 13M7 14L7 17L8 17L7 14M39 14L40 15L39 14M88 14L89 15L88 14M14.3333 15.6667L14.6667 16.3333L14.3333 15.6667M77 15L78 16L77 15M24.6667 16.3333L25.3333 16.6667L24.6667 16.3333M42 16L43 17L42 16M85 16L86 17L85 16M102.667 16.3333L103.333 16.6667L102.667 16.3333M113 16L114 17L113 16M22 17L23 18L22 17z"/>
<path style="fill:#c6a299; stroke:none;" d="M23 17L24 18L23 17z"/>
<path style="fill:#fcf4f0; stroke:none;" d="M24 17C19.1137 25.5961 19 34.3714 19 44C26.8099 38.665 33.1573 32.8593 43 32C40.0611 23.356 32.1279 19.6501 24 17z"/>
<path style="fill:#c6a299; stroke:none;" d="M25 17L26 18L25 17z"/>
<path style="fill:#c3260f; stroke:none;" d="M28 17L29 18L28 17M43 17L44 18L43 17M84 17L85 18L84 17M99 17L100 18L99 17z"/>
<path style="fill:#c6a299; stroke:none;" d="M101.667 17.3333L102.333 17.6667L101.667 17.3333z"/>
<path style="fill:#fcf4f0; stroke:none;" d="M85 32C94.8427 32.8593 101.19 38.665 109 44C109 34.3713 108.886 25.5961 104 17C95.8721 19.6501 87.9389 23.356 85 32z"/>
<path style="fill:#c6a299; stroke:none;" d="M104 17L105 18L104 17M28 18L29 19L28 18z"/>
<path style="fill:#c3260f; stroke:none;" d="M30 18L31 19L30 18M44 18L45 19L44 18M83 18L84 19L83 18M97 18L98 19L97 18z"/>
<path style="fill:#c6a299; stroke:none;" d="M99 18L100 19L99 18z"/>
<path style="fill:#c3260f; stroke:none;" d="M13.3333 19.6667L13.6667 20.3333L13.3333 19.6667M21 19L22 20L21 19z"/>
<path style="fill:#c6a299; stroke:none;" d="M22 19L23 20L22 19M31 19L32 20L31 19z"/>
<path style="fill:#c3260f; stroke:none;" d="M32 19L33 20L32 19M45 19L46 20L45 19M73 19L74 20L73 19M82 19L83 20L82 19z"/>
<path style="fill:#c6a299; stroke:none;" d="M96 19L97 20L96 19M105 19L106 20L105 19z"/>
<path style="fill:#c3260f; stroke:none;" d="M106 19L107 20L106 19M114.333 19.6667L114.667 20.3333L114.333 19.6667M121.333 19.6667L121.667 20.3333L121.333 19.6667M6 20L7 21L6 20M34 20L35 21L34 20M46 20L47 21L46 20M81 20L82 21L81 20M93 20L94 21L93 20z"/>
<path style="fill:#c6a299; stroke:none;" d="M94 20L95 21L94 20z"/>
<path style="fill:#c3260f; stroke:none;" d="M20 21L21 22L20 21z"/>
<path style="fill:#c6a299; stroke:none;" d="M21 21L22 22L21 21M34 21L35 22L34 21z"/>
<path style="fill:#c3260f; stroke:none;" d="M47 21L48 22L47 21M55 21L56 22L55 21M80 21L81 22L80 21z"/>
<path style="fill:#c6a299; stroke:none;" d="M93 21L94 22L93 21M106 21L107 22L106 21z"/>
<path style="fill:#c3260f; stroke:none;" d="M107.333 21.6667L107.667 22.3333L107.333 21.6667M37 22L41 26L37 22M79 22L80 23L79 22M90 22L86 27L90 22M122 22L123 23L122 22M12 23L12 26L13 26L12 23z"/>
<path style="fill:#c6a299; stroke:none;" d="M37 23L38 24L37 23M90 23L91 24L90 23z"/>
<path style="fill:#c3260f; stroke:none;" d="M115 23L115 26L116 26L115 23M5 24L6 25L5 24M19.3333 24.6667L19.6667 25.3333L19.3333 24.6667z"/>
<path style="fill:#c6a299; stroke:none;" d="M20 24L21 25L20 24M38 24L39 25L38 24z"/>
<path style="fill:#c3260f; stroke:none;" d="M49 24L50 25L49 24z"/>
<path style="fill:#c6a299; stroke:none;" d="M89 24L90 25L89 24M107 24L108 25L107 24z"/>
<path style="fill:#c3260f; stroke:none;" d="M108.333 24.6667L108.667 25.3333L108.333 24.6667z"/>
<path style="fill:#c6a299; stroke:none;" d="M39 25L40 26L39 25z"/>
<path style="fill:#c3260f; stroke:none;" d="M50 25L51 26L50 25M77 25L78 26L77 25z"/>
<path style="fill:#c6a299; stroke:none;" d="M88 25L89 26L88 25z"/>
<path style="fill:#c3260f; stroke:none;" d="M122 25L123 26L122 25z"/>
<path style="fill:#c6a299; stroke:none;" d="M40 26L41 27L40 26M87 26L88 27L87 26M19 27L19 30L20 30L19 27z"/>
<path style="fill:#c3260f; stroke:none;" d="M11 28L11 33L12 33L11 28M18 28L18 31L19 31L18 28M42 28L44 30L42 28M52 28L53 29L52 28M75 28L76 29L75 28z"/>
<path style="fill:#c6a299; stroke:none;" d="M108.333 28.6667L108.667 29.3333L108.333 28.6667M42 29L43 30L42 29z"/>
<path style="fill:#c3260f; stroke:none;" d="M84 29L85 30L84 29z"/>
<path style="fill:#c6a299; stroke:none;" d="M85 29L86 30L85 29z"/>
<path style="fill:#c3260f; stroke:none;" d="M109.333 29.6667L109.667 30.3333L109.333 29.6667M116 29L116 34L117 34L116 29M4 30L5 31L4 30M53 30L54 31L53 30M74 30L75 31L74 30z"/>
<path style="fill:#c6a299; stroke:none;" d="M43 31L44 32L43 31M84 31L85 32L84 31z"/>
<path style="fill:#c3260f; stroke:none;" d="M123 31L124 32L123 31M4 32L5 33L4 32z"/>
<path style="fill:#c6a299; stroke:none;" d="M38.6667 32.3333L39.3333 32.6667L38.6667 32.3333z"/>
<path style="fill:#c3260f; stroke:none;" d="M42 32L43 33L42 32M85 32L86 33L85 32z"/>
<path style="fill:#c6a299; stroke:none;" d="M88.6667 32.3333L89.3333 32.6667L88.6667 32.3333M35 33L36 34L35 33z"/>
<path style="fill:#c3260f; stroke:none;" d="M37.6667 33.3333L38.3333 33.6667L37.6667 33.3333M89.6667 33.3333L90.3333 33.6667L89.6667 33.3333z"/>
<path style="fill:#c6a299; stroke:none;" d="M92 33L93 34L92 33M32 34L33 35L32 34z"/>
<path style="fill:#c3260f; stroke:none;" d="M34 34L35 35L34 34M92.6667 34.3333L93.3333 34.6667L92.6667 34.3333z"/>
<path style="fill:#c6a299; stroke:none;" d="M95 34L96 35L95 34z"/>
<path style="fill:#c3260f; stroke:none;" d="M123 34L124 35L123 34z"/>
<path style="fill:#c6a299; stroke:none;" d="M30 35L31 36L30 35z"/>
<path style="fill:#c3260f; stroke:none;" d="M32 35L33 36L32 35M95 35L96 36L95 35z"/>
<path style="fill:#c6a299; stroke:none;" d="M97 35L98 36L97 35M18 36L18 40L19 40L18 36z"/>
<path style="fill:#c3260f; stroke:none;" d="M30 36L31 37L30 36M97 36L98 37L97 36z"/>
<path style="fill:#c6a299; stroke:none;" d="M27 37L28 38L27 37z"/>
<path style="fill:#c3260f; stroke:none;" d="M28 37L29 38L28 37M99 37L101 39L99 37z"/>
<path style="fill:#c6a299; stroke:none;" d="M100 37L101 38L100 37M24 39L23 41L24 39z"/>
<path style="fill:#c3260f; stroke:none;" d="M25 39L26 40L25 39M102 39L105 42L102 39z"/>
<path style="fill:#c6a299; stroke:none;" d="M103 39L104 40L103 39z"/>
<path style="fill:#c3260f; stroke:none;" d="M3 40L3 45L4 45L3 40M24 40L25 41L24 40z"/>
<path style="fill:#c6a299; stroke:none;" d="M104 40L105 41L104 40z"/>
<path style="fill:#c3260f; stroke:none;" d="M23 41L24 42L23 41z"/>
<path style="fill:#c6a299; stroke:none;" d="M105 41L106 42L105 41z"/>
<path style="fill:#c3260f; stroke:none;" d="M106 43L107 44L106 43z"/>
<path style="fill:#c6a299; stroke:none;" d="M107 43L108 44L107 43z"/>
<path style="fill:#c3260f; stroke:none;" d="M122 45L123 46L122 45M4 50L5 51L4 50M116 51L117 52L116 51M124 52L125 53L124 52M10 53L11 54L10 53M117 53L118 54L117 53M9 54L10 55L9 54M118 54L119 55L118 54M1 55L2 56L1 55M8.33333 56.6667L8.66667 57.3333L8.33333 56.6667M119.333 56.6667L119.667 57.3333L119.333 56.6667M0 57L1 58L0 57M14 58L14 59L18 59L14 58M110 58L110 59L114 59L110 58M20 59L20 60L23 60L20 59M105 59L105 60L108 60L105 59M25.6667 60.3333L26.3333 60.6667L25.6667 60.3333M101.667 60.3333L102.333 60.6667L101.667 60.3333M29 61L30 62L29 61M98 61L99 62L98 61z"/>
<path style="fill:#c6a299; stroke:none;" d="M5 65L6 65L11 63C8.11956 61.902 6.64978 62.4455 5 65z"/>
<path style="fill:#c3260f; stroke:none;" d="M11 62L12 63L11 62M32 62L33 63L32 62M95 62L96 63L95 62M116 62L117 63L116 62z"/>
<path style="fill:#c6a299; stroke:none;" d="M117 62L117 63L122 66C122.777 62.5456 119.94 62.2268 117 62z"/>
<path style="fill:#fcf4f0; stroke:none;" d="M59 106C53.6706 96.6172 61.3168 89.8143 53.6744 81.0394C45.1483 71.2498 31.4516 66.2707 19 64.0841C15.5029 63.47 7.85401 61.1583 5.74228 65.3179C2.6383 71.432 7.64081 81.3273 11.3796 85.9992C22.2072 99.529 42.1598 105.861 59 106z"/>
<path style="fill:#c6a299; stroke:none;" d="M15 63L15 64L19 64L15 63z"/>
<path style="fill:#c3260f; stroke:none;" d="M35 63L36 64L35 63M92 63L93 64L92 63z"/>
<path style="fill:#c6a299; stroke:none;" d="M109 63L109 64L113 64L109 63z"/>
<path style="fill:#fcf4f0; stroke:none;" d="M69 106C92.384 105.806 127.305 91.5932 122 63C104.484 63.0116 78.2391 69.396 70.0285 87C67.1779 93.112 72.8382 98.5095 69 106z"/>
<path style="fill:#c6a299; stroke:none;" d="M21.6667 64.3333L22.3333 64.6667L21.6667 64.3333z"/>
<path style="fill:#c3260f; stroke:none;" d="M23 64L24 65L23 64M37 64L38 65L37 64M90 64L91 65L90 64M104 64L105 65L104 64z"/>
<path style="fill:#c6a299; stroke:none;" d="M105.667 64.3333L106.333 64.6667L105.667 64.3333M25.6667 65.3333L26.3333 65.6667L25.6667 65.3333z"/>
<path style="fill:#c3260f; stroke:none;" d="M39 65L40 66L39 65M87.6667 65.3333L88.3333 65.6667L87.6667 65.3333z"/>
<path style="fill:#c6a299; stroke:none;" d="M101.667 65.3333L102.333 65.6667L101.667 65.3333M29 66L30 67L29 66z"/>
<path style="fill:#c3260f; stroke:none;" d="M30 66L31 67L30 66M41 66L42 67L41 66M85.6667 66.3333L86.3333 66.6667L85.6667 66.3333M97 66L98 67L97 66z"/>
<path style="fill:#c6a299; stroke:none;" d="M98 66L99 67L98 66M32 67L33 68L32 67z"/>
<path style="fill:#c3260f; stroke:none;" d="M43 67L44 68L43 67M84 67L85 68L84 67z"/>
<path style="fill:#c6a299; stroke:none;" d="M95 67L96 68L95 67M34.6667 68.3333L35.3333 68.6667L34.6667 68.3333z"/>
<path style="fill:#c3260f; stroke:none;" d="M45 68L46 69L45 68M82 68L83 69L82 68z"/>
<path style="fill:#c6a299; stroke:none;" d="M92.6667 68.3333L93.3333 68.6667L92.6667 68.3333M37 69L38 70L37 69z"/>
<path style="fill:#c3260f; stroke:none;" d="M47 69L48 70L47 69M80 69L81 70L80 69z"/>
<path style="fill:#c6a299; stroke:none;" d="M90 69L91 70L90 69M39 70L40 71L39 70z"/>
<path style="fill:#c3260f; stroke:none;" d="M48 70L49 71L48 70M79 70L80 71L79 70z"/>
<path style="fill:#c6a299; stroke:none;" d="M88 70L89 71L88 70M41 71L42 72L41 71M86 71L87 72L86 71M42 72L43 73L42 72z"/>
<path style="fill:#c3260f; stroke:none;" d="M51 72L52 73L51 72M76 72L77 73L76 72z"/>
<path style="fill:#c6a299; stroke:none;" d="M85 72L86 73L85 72M5 73L5 76L6 76L5 73M26 77L27 77L30 74L26 77z"/>
<path style="fill:#381917; stroke:none;" d="M35 77L32 78L32 73C22.0445 76.6604 32.0567 86.6945 35 77z"/>
<path style="fill:#c6a299; stroke:none;" d="M32 73L33 74L32 73M44 73L45 74L44 73z"/>
<path style="fill:#c3260f; stroke:none;" d="M52 73L53 74L52 73M75 73L76 74L75 73z"/>
<path style="fill:#c6a299; stroke:none;" d="M83 73L84 74L83 73M94 73L95 74L94 73z"/>
<path style="fill:#c3260f; stroke:none;" d="M95 73L96 74L95 73z"/>
<path style="fill:#381917; stroke:none;" d="M101 77L98 78L98 73C87.3324 76.7486 97.4971 86.5262 101 77z"/>
<path style="fill:#c6a299; stroke:none;" d="M122.333 73.6667L122.667 74.3333L122.333 73.6667z"/>
<path style="fill:#c3260f; stroke:none;" d="M31 74L32 75L31 74M53 74L54 75L53 74M74 74L75 75L74 74M81 74L82 75L81 74M93 74L94 75L93 74z"/>
<path style="fill:#c6a299; stroke:none;" d="M97 74L98 75L97 74M31 75L32 76L31 75M47 75L48 76L47 75M80 75L81 76L80 75M92 75L93 76L92 75z"/>
<path style="fill:#c3260f; stroke:none;" d="M122 75L123 76L122 75M31 76L32 77L31 76z"/>
<path style="fill:#c6a299; stroke:none;" d="M48 76L49 77L48 76M79 76L80 77L79 76M97 76L98 77L97 76M100 76L101 77L100 76M6.33333 77.6667L6.66667 78.3333L6.33333 77.6667z"/>
<path style="fill:#c3260f; stroke:none;" d="M26.3333 77.6667L26.6667 78.3333L26.3333 77.6667M32 77L33 78L32 77z"/>
<path style="fill:#c6a299; stroke:none;" d="M33 77L34 78L33 77M35.3333 77.6667L35.6667 78.3333L35.3333 77.6667M98.6667 77.3333L99.3333 77.6667L98.6667 77.3333M121 77L122 78L121 77z"/>
<path style="fill:#c3260f; stroke:none;" d="M57 78L58 79L57 78M121 78L122 79L121 78z"/>
<path style="fill:#c6a299; stroke:none;" d="M26 79L27 80L26 79z"/>
<path style="fill:#c3260f; stroke:none;" d="M58 79L59 80L58 79M69 79L70 80L69 79M75 79L76 80L75 79M100 79L101 80L100 79z"/>
<path style="fill:#c6a299; stroke:none;" d="M120.333 79.6667L120.667 80.3333L120.333 79.6667M7 80L8 81L7 80M34 80L35 81L34 80z"/>
<path style="fill:#c3260f; stroke:none;" d="M59 80L60 81L59 80M68 80L69 81L68 80M74 80L75 81L74 80z"/>
<path style="fill:#c6a299; stroke:none;" d="M92 80L93 81L92 80M100 80L101 81L100 80M8 81L9 82L8 81M33 81L34 82L33 81M93 81L94 82L93 81M99 81L100 82L99 81M119 81L120 82L119 81z"/>
<path style="fill:#c3260f; stroke:none;" d="M8 82L9 83L8 82z"/>
<path style="fill:#c6a299; stroke:none;" d="M29 82L29 83L32 83L29 82M95 82L95 83L98 83L95 82M9 83L10 84L9 83M55 83L56 84L55 83z"/>
<path style="fill:#c3260f; stroke:none;" d="M61 83L62 84L61 83M66 83L67 84L66 83z"/>
<path style="fill:#c6a299; stroke:none;" d="M72 83L73 84L72 83M118 83L119 84L118 83M56 84L57 85L56 84M71 84L72 85L71 84M117 84L118 85L117 84z"/>
<path style="fill:#c3260f; stroke:none;" d="M62 85L63 86L62 85M65 85L66 86L65 85M70 85L71 86L70 85M4 86L5 87L4 86z"/>
<path style="fill:#c6a299; stroke:none;" d="M5 86L5 92L6 92L5 86M11 86L12 87L11 86M57 86L58 87L57 86M116 86L117 87L116 86M122 86L118 100L119 100C121.428 95.7282 123.976 90.8461 122 86z"/>
<path style="fill:#fcf4f0; stroke:none;" d="M5 87L6 88L5 87z"/>
<path style="fill:#c6a299; stroke:none;" d="M12 87L13 88L12 87M58 87L59 88L58 87z"/>
<path style="fill:#c3260f; stroke:none;" d="M63.6667 87.3333L64.3333 87.6667L63.6667 87.3333z"/>
<path style="fill:#c6a299; stroke:none;" d="M69 87L70 88L69 87M115 87L116 88L115 87z"/>
<path style="fill:#fcf4f0; stroke:none;" d="M6 88C6.71925 101.865 19.225 111.084 31 116.127C51.9548 125.102 79.4736 124.745 100 114.741C110.896 109.43 120.883 100.711 122 88L121 88C94.4261 125.621 34.7358 114.542 6 88z"/>
<path style="fill:#c6a299; stroke:none;" d="M13 88L14 89L13 88M114 88L115 89L114 88z"/>
<path style="fill:#c3260f; stroke:none;" d="M120 88L121 89L120 88z"/>
<path style="fill:#c6a299; stroke:none;" d="M7 89L8 90L7 89M14 89L15 90L14 89M59.3333 89.6667L59.6667 90.3333L59.3333 89.6667M68 89L69 90L68 89M113 89L114 90L113 89M120 89L121 90L120 89M8 90L9 91L8 90M15 90L16 91L15 90M112 90L113 91L112 90M119 90L120 91L119 90M9 91L10 92L9 91M16 91L17 92L16 91z"/>
<path style="fill:#c3260f; stroke:none;" d="M59 91L60 92L59 91z"/>
<path style="fill:#c6a299; stroke:none;" d="M68 91L69 92L68 91M111 91L112 92L111 91M118 91L119 92L118 91M10 92L11 93L10 92z"/>
<path style="fill:#c3260f; stroke:none;" d="M17 92L18 93L17 92z"/>
<path style="fill:#c6a299; stroke:none;" d="M117 92L118 93L117 92M6.33333 93.6667L6.66667 94.3333L6.33333 93.6667M11 93L12 94L11 93M19 93L20 94L19 93z"/>
<path style="fill:#c3260f; stroke:none;" d="M70 93L71 94L70 93z"/>
<path style="fill:#c6a299; stroke:none;" d="M108 93L109 94L108 93M116 93L117 94L116 93M12 94L13 95L12 94M20 94L21 95L20 94M56 94L57 95L56 94M71 94L72 95L71 94M107 94L108 95L107 94M115 94L116 95L115 94M7.33333 95.6667L7.66667 96.3333L7.33333 95.6667M13 95L14 96L13 95M22 95L23 96L22 95z"/>
<path style="fill:#c3260f; stroke:none;" d="M71 95L72 96L71 95z"/>
<path style="fill:#c6a299; stroke:none;" d="M105 95L106 96L105 95M114 95L115 96L114 95z"/>
<path style="fill:#c3260f; stroke:none;" d="M15 96L16 97L15 96z"/>
<path style="fill:#c6a299; stroke:none;" d="M23 96L24 97L23 96M104 96L105 97L104 96M112 96L113 97L112 96M8.33333 97.6667L8.66667 98.3333L8.33333 97.6667M16 97L17 98L16 97M25 97L26 98L25 97M55 97L55 100L56 100L55 97M102 97L103 98L102 97M111 97L112 98L111 97z"/>
<path style="fill:#c3260f; stroke:none;" d="M127 97L128 98L127 97z"/>
<path style="fill:#c6a299; stroke:none;" d="M17 98L18 99L17 98M27 98L28 99L27 98M72 98L73 99L72 98M100 98L101 99L100 98M110 98L111 99L110 98M9 99L10 100L9 99M19 99L20 100L19 99M29 99L30 100L29 99M98 99L99 100L98 99M108 99L109 100L108 99M20 100L21 101L20 100z"/>
<path style="fill:#c3260f; stroke:none;" d="M21 100L22 101L21 100z"/>
<path style="fill:#c6a299; stroke:none;" d="M31.6667 100.333L32.3333 100.667L31.6667 100.333M95.6667 100.333L96.3333 100.667L95.6667 100.333z"/>
<path style="fill:#c3260f; stroke:none;" d="M106 100L107 101L106 100z"/>
<path style="fill:#c6a299; stroke:none;" d="M107 100L108 101L107 100M10 101L11 102L10 101M22 101L23 102L22 101z"/>
<path style="fill:#c3260f; stroke:none;" d="M33 101L34 102L33 101z"/>
<path style="fill:#c6a299; stroke:none;" d="M34 101L35 102L34 101M56.3333 101.667L56.6667 102.333L56.3333 101.667M71 101L72 102L71 101M93 101L94 102L93 101M105 101L106 102L105 101M117 101L118 102L117 101M11 102L12 103L11 102M24 102L25 103L24 102M36.6667 102.333L37.3333 102.667L36.6667 102.333M90.6667 102.333L91.3333 102.667L90.6667 102.333M103 102L104 103L103 102M116 102L117 103L116 102z"/>
<path style="fill:#c3260f; stroke:none;" d="M124 102L125 103L124 102z"/>
<path style="fill:#c6a299; stroke:none;" d="M12 103L13 104L12 103M26 103L27 104L26 103z"/>
<path style="fill:#c3260f; stroke:none;" d="M39 103L40 104L39 103z"/>
<path style="fill:#c6a299; stroke:none;" d="M40.6667 103.333L41.3333 103.667L40.6667 103.333M57 103L58 104L57 103M70 103L71 104L70 103M86.6667 103.333L87.3333 103.667L86.6667 103.333z"/>
<path style="fill:#c3260f; stroke:none;" d="M88 103L89 104L88 103z"/>
<path style="fill:#c6a299; stroke:none;" d="M101 103L102 104L101 103M115 103L116 104L115 103M13 104L14 105L13 104M28 104L29 105L28 104z"/>
<path style="fill:#c3260f; stroke:none;" d="M29 104L30 105L29 104z"/>
<path style="fill:#c6a299; stroke:none;" d="M43 104L43 105L46 105L43 104M58 104L59 105L58 104M69 104L70 105L69 104M82 104L82 105L85 105L82 104z"/>
<path style="fill:#c3260f; stroke:none;" d="M98 104L99 105L98 104z"/>
<path style="fill:#c6a299; stroke:none;" d="M99 104L100 105L99 104M114 104L115 105L114 104z"/>
<path style="fill:#c3260f; stroke:none;" d="M123 104L124 105L123 104z"/>
<path style="fill:#c6a299; stroke:none;" d="M14 105L15 106L14 105M30.6667 105.333L31.3333 105.667L30.6667 105.333M48 105L48 106L52 106L48 105M59 105L56 106L56 107L59 105M68 105L72 107L72 106L68 105M76 105L76 106L80 106L76 105M96.6667 105.333L97.3333 105.667L96.6667 105.333M113 105L114 106L113 105M15 106L16 107L15 106M33.6667 106.333L34.3333 106.667L33.6667 106.333z"/>
<path style="fill:#c3260f; stroke:none;" d="M55 106L56 107L55 106M60 106L61 107L60 106M67 106L68 107L67 106M72 106L73 107L72 106z"/>
<path style="fill:#c6a299; stroke:none;" d="M93.6667 106.333L94.3333 106.667L93.6667 106.333M112 106L113 107L112 106M16 107L17 108L16 107M35 107L35 108L38 108L35 107M90 107L90 108L93 108L90 107M111 107L112 108L111 107M17 108L18 109L17 108M39.6667 108.333L40.3333 108.667L39.6667 108.333z"/>
<path style="fill:#c3260f; stroke:none;" d="M41 108L42 109L41 108z"/>
<path style="fill:#c6a299; stroke:none;" d="M86 108L86 109L89 109L86 108M110 108L111 109L110 108M18 109L19 110L18 109M43 109L43 110L46 110L43 109z"/>
<path style="fill:#c3260f; stroke:none;" d="M46 109L47 110L46 109M81 109L82 110L81 109z"/>
<path style="fill:#c6a299; stroke:none;" d="M82 109L82 110L85 110L82 109M108 109L109 110L108 109z"/>
<path style="fill:#c3260f; stroke:none;" d="M109 109L110 110L109 109z"/>
<path style="fill:#c6a299; stroke:none;" d="M20 110L21 111L20 110M47 110L47 111L52 111L47 110z"/>
<path style="fill:#c3260f; stroke:none;" d="M52.6667 110.333L53.3333 110.667L52.6667 110.333M74 110L75 111L74 110z"/>
<path style="fill:#c6a299; stroke:none;" d="M75 110L75 111L80 111L75 110M107 110L108 111L107 110M21 111L22 112L21 111M55 111L55 112L73 112L55 111M106 111L107 112L106 111M23 112L24 113L23 112M104 112L105 113L104 112z"/>
<path style="fill:#c3260f; stroke:none;" d="M24 113L25 114L24 113z"/>
<path style="fill:#c6a299; stroke:none;" d="M25 113L26 114L25 113M102 113L103 114L102 113z"/>
<path style="fill:#c3260f; stroke:none;" d="M103 113L104 114L103 113M114 113L115 114L114 113z"/>
<path style="fill:#c6a299; stroke:none;" d="M26.6667 114.333L27.3333 114.667L26.6667 114.333M100.667 114.333L101.333 114.667L100.667 114.333M28.6667 115.333L29.3333 115.667L28.6667 115.333M98.6667 115.333L99.3333 115.667L98.6667 115.333z"/>
<path style="fill:#c3260f; stroke:none;" d="M112 115L113 116L112 115z"/>
<path style="fill:#c6a299; stroke:none;" d="M30.6667 116.333L31.3333 116.667L30.6667 116.333M96 116L97 117L96 116z"/>
<path style="fill:#c3260f; stroke:none;" d="M97 116L98 117L97 116z"/>
<path style="fill:#c6a299; stroke:none;" d="M33.6667 117.333L34.3333 117.667L33.6667 117.333M93.6667 117.333L94.3333 117.667L93.6667 117.333z"/>
<path style="fill:#c3260f; stroke:none;" d="M35 118L36 119L35 118z"/>
<path style="fill:#c6a299; stroke:none;" d="M36.6667 118.333L37.3333 118.667L36.6667 118.333M90.6667 118.333L91.3333 118.667L90.6667 118.333z"/>
<path style="fill:#c3260f; stroke:none;" d="M92 118L93 119L92 118M107 118L108 119L107 118M21 119L22 120L21 119M38 119L39 120L38 119z"/>
<path style="fill:#c6a299; stroke:none;" d="M39.6667 119.333L40.3333 119.667L39.6667 119.333M87.6667 119.333L88.3333 119.667L87.6667 119.333z"/>
<path style="fill:#c3260f; stroke:none;" d="M89 119L90 120L89 119M105 119L106 120L105 119z"/>
<path style="fill:#c6a299; stroke:none;" d="M42 120L42 121L45 121L42 120M83 120L83 121L86 121L83 120z"/>
<path style="fill:#c3260f; stroke:none;" d="M46 121L47 122L46 121z"/>
<path style="fill:#c6a299; stroke:none;" d="M47 121L47 122L51 122L47 121M77 121L77 122L81 122L77 121z"/>
<path style="fill:#c3260f; stroke:none;" d="M81 121L82 122L81 121M52 122L53 123L52 122z"/>
<path style="fill:#c6a299; stroke:none;" d="M53 122L53 123L75 123L53 122z"/>
<path style="fill:#c3260f; stroke:none;" d="M75 122L76 123L75 122M99 122L100 123L99 122M38 126L39 127L38 126M89 126L90 127L89 126z"/>
</svg>
