<?xml version="1.0" standalone="yes"?>
<svg xmlns="http://www.w3.org/2000/svg" width="1000" height="600">
<path style="fill:#010101; stroke:none;" d="M0 0L0 600L1000 600L1000 0L0 0z"/>
<path style="fill:#fb6b6e; stroke:none;" d="M137 250L164 250C162.831 244.335 161.378 227.364 156.436 224.068C143.317 215.318 137.92 243.17 137 250M503.005 225.742C490.292 230.691 500.127 248.836 511.996 244.258C525.936 238.881 516.064 220.659 503.005 225.742M19 226L19 234C31.5542 234.148 23.9403 241.782 29.179 248.397C31.7164 251.6 40.3358 250 44 250C44 241.181 43.2421 234.127 54 234L54 226L19 226M75 226L75 234C86.058 234.039 85 240.75 85 250C99.5097 249.949 88.6949 234.054 104 234L104 226L75 226M205 226L200 250L210 250C213.472 237.97 220.317 235 232 235L232 250L247 250L247 235C251.806 235 257.623 234.159 261.815 237.009C270.077 242.629 267.209 249.991 279 250L273.411 227.028L255 226L205 226M377 226L377 234C388.201 234.04 387 240.648 387 250C390.674 250 399.429 251.607 401.972 248.397C406.259 242.984 399.428 234.48 410.001 234.019C418.493 233.649 428.253 232.848 436 236.821C445.643 241.766 448.268 249.968 460 250C458.697 244.37 456.381 230.462 451.49 227.028C447.093 223.94 436.209 226 431 226L377 226z"/>
<path style="fill:#ef4c5a; stroke:none;" d="M28 248L28 273L29.6034 281.972L44 283L44 250L28 248M93 248L85 250L85 273C85.0012 275.604 84.2464 280.124 86.6034 281.971C90.1536 284.754 93.6169 281.546 93.9414 277.981C94.688 269.776 96.1764 255.57 93 248M146 249C143.51 249.738 139.663 249.471 137.564 251.028C131.49 255.533 130.29 274.838 128 282L139 283C140.403 273.464 149.291 258.201 146 249M148 249C152.113 263.603 151.384 288.094 172 282L164 250L148 249M208 249C203.521 250.344 200.134 249.801 199 255L207 256L208 249M402 249L387 250C387 257.009 383.642 275.859 388.028 281.397C390.147 284.073 396.02 283 399 283L429 283C432.151 283 438.739 284.216 440.972 281.397C444.136 277.402 442 265.941 442 261L433 261C432.998 280.434 418.219 277 403 277L402 249M450 249L453 255L461 253L450 249z"/>
<path style="fill:#010101; stroke:none;" d="M147 250L136 292L159 292L149 250L147 250z"/>
<path style="fill:#ef4c5a; stroke:none;" d="M232 250L232 283L245.397 281.972L247 273L247 250L232 250M270 250L272 256L280 255C278.795 249.48 274.919 250.004 270 250z"/>
<path style="fill:#fb6b6e; stroke:none;" d="M199 251L200 252L199 251M451 251L452 252L451 251M460 251L461 252L460 251M164 252L165 253L164 252M458 253L459 254L458 253M207 254L208 255L207 254M455 254L456 255L455 254M205 255L206 256L205 255M165 256L166 257L165 256M134 258L135 259L134 258M166 260L167 261L166 260z"/>
<path style="fill:#ef4c5a; stroke:none;" d="M480 265L480 273C489.979 273 499.955 270.315 500 283C503.357 283 509.611 284.179 512.397 281.972C516.368 278.827 514 264.718 514 260L480 265z"/>
<path style="fill:#fb6b6e; stroke:none;" d="M506 261L507 262L506 261z"/>
<path style="fill:#ef4c5a; stroke:none;" d="M556 265L556 273L565 273C565.019 297.355 592.279 271.567 603 273.243C608.734 274.139 609.376 279.203 613.495 281.972C616.906 284.266 623.366 283.074 627 282C620.6 259.934 595.349 258.447 580 273L578.397 262.046L556 265z"/>
<path style="fill:#fb6b6e; stroke:none;" d="M579 261L580 262L579 261z"/>
<path style="fill:#ef4c5a; stroke:none;" d="M734 265L734 273L743 273C743.008 283.166 750.24 285.767 760 282.411C769.307 279.211 786.031 263.341 790 283L805 282C798.6 259.934 773.349 258.447 758 273L756.397 262.046L734 265z"/>
<path style="fill:#fb6b6e; stroke:none;" d="M757 261L758 262L757 261z"/>
<path style="fill:#ef4c5a; stroke:none;" d="M651 283L668 282C666.709 266.63 695.708 269.308 699 283C702.292 283 708.686 284.201 711.382 281.972C716.724 277.556 706.414 268.732 702.999 266.999C688.137 259.46 652.911 261.941 651 283M833 283C837.125 283 841.984 283.687 845.985 282.566C849.779 281.504 851.993 278.037 855.039 275.789C862.795 270.064 877.982 270.067 876 283L894 283C886.133 255.879 842.816 257.662 833 283M922 283C926.233 283 932.726 284.219 936.486 281.987C942.478 278.43 945.982 271.925 954 272.279C966.548 272.832 969.613 286.253 984 282C974.71 252.907 933.778 261.869 922 283z"/>
<path style="fill:#e53148; stroke:none;" d="M618 267L619 268L618 267M796 267L797 268L796 267M168 268L169 269L168 268M661 268L662 269L661 268M705 268L706 269L705 268M622 271L623 272L622 271M800 271L801 272L800 271M169 272L170 273L169 272M692 272L693 273L692 272z"/>
<path style="fill:#010101; stroke:none;" d="M933 298L972 298C971.86 291.195 970.828 283.637 966.363 278.185C951.79 260.394 933.327 282.23 933 298z"/>
<path style="fill:#e53148; stroke:none;" d="M154 273L155 274L154 273M710 273L711 274L710 273M499 274L500 275L499 274M838 274L839 275L838 274M170 276L171 277L170 276M129 277L130 278L129 277M155 277L156 278L155 277M925 277L926 278L925 277M587 278L588 279L587 278M651 278L652 279L651 278M851 278L852 279L851 278M939 278L940 279L939 278M139 279L140 280L139 279M586 279L587 280L586 279M611 279L612 280L611 279M764 279L765 280L764 279M171 280L172 281L171 280M667 280L668 281L667 280M876 280L877 281L876 280M923 280L924 281L923 280M937 281L938 282L937 281M968 281L969 282L968 281M28 282C28 288.306 24.6341 309.839 29.7423 313.972C32.782 316.432 40.2866 315 44 315L44 283L28 282M85 282C85 290.653 84.7422 299.35 85.0154 307.999C85.1196 311.296 85.7132 315.143 89.9352 314.793C94.0097 314.455 93.9522 310.14 93.9961 307C94.1126 298.67 94 290.331 94 282L85 282M128 282L120 315L129.914 313.397L135.433 301.028L161 300L164 315L179 315L172 282L157 283L159 292L136 292L138 283L128 282M246 282L232 283L232 315C235.512 315 242.372 316.307 245.258 313.972C249.675 310.398 248.052 286.891 246 282M387 282C387 289.163 383.662 307.693 388.179 313.397C390.445 316.258 400.531 316.068 402.258 312.682C405.651 306.026 403 292.419 403 285C420.014 285 433 283.324 433 304L442 304L442 282C427.055 285.558 401.945 285.558 387 282M513 282L500 283L500 315C503.307 315 509.53 316.179 512.258 313.972C516.675 310.398 515.052 286.891 513 282M565 282C565 288.306 561.634 309.839 566.742 313.972C569.47 316.179 575.693 315 579 315L582 283L565 282M582 282L583 283L582 282M612 282L613 283L612 282M626 282L613 283L613 315L627 315L626 282M667 282L651 283C653.365 292.708 669.938 292.06 667 282M712 282L699 283L699 291C683.134 291.044 652.036 295.651 649 315C667.889 315 679.112 299.856 699 299C699 312.099 699.382 315 713 315L712 282M743 282C743 288.306 739.634 309.839 744.742 313.972C747.47 316.179 753.693 315 757 315L760 283L743 282M804 282L791 283L791 315L805 315L804 282M849 282C844.546 282.827 836.275 281.432 832.649 284.028C827.247 287.895 825.483 307.37 829.028 312.682C831.059 315.726 840.656 316.453 842.958 313.397C844.878 310.847 842.973 305.974 843.184 303C843.72 295.46 845.779 288.782 849 282M969 282L972 298L933 298L936 283C931.938 283 924.888 281.648 921.652 284.603C916.877 288.964 914.07 309.472 919.738 313.972C922.667 316.297 929.457 315 933 315L933 306L988 306L985 282L969 282M876 283C876.873 295.973 890.919 293.493 894 283L876 283z"/>
<path style="fill:#010101; stroke:none;" d="M699 299C693.205 299.12 687.531 300.306 682 302.025C678.12 303.232 674.357 304.651 671.04 307.055C668.798 308.68 666.93 310.613 665.533 313.015C652.866 334.788 691.639 341.726 698.397 324.907C701.188 317.958 699 306.455 699 299z"/>
<path style="fill:#d81133; stroke:none;" d="M133 302L134 303L133 302M680 302L681 303L680 302M673 305L674 306L673 305M670 307L671 308L670 307M162 308L163 309L162 308M843 308L844 309L843 308M650 309L651 310L650 309M131 310L132 311L131 310M579 311L579 315L566 313L565 313C565 322.159 568.1 333.857 556 334L556 343L589 343L589 334C574.671 333.831 582.778 320.003 579 311M666 311L667 312L666 311M757 311L757 315L744 313L743 313L743 334L734 334L734 343L767 343L767 334C752.671 333.831 760.778 320.003 757 311M120.333 312.667L120.667 313.333L120.333 312.667M163 312L164 313L163 312M665 312L666 313L665 312M933 312C930.189 316.337 922.838 315.908 919 313L918 313C922.654 347.393 980.176 357.856 986 319L978 317C971.855 331.239 955.437 340.475 942.015 328.786C936.443 323.933 935.825 318.239 933 312M28 313C28.8219 319.498 29.208 326.646 33.3943 331.996C53.1591 357.255 90.4143 341.224 94 313L93 313C90.1028 315.159 88.0935 314.709 85 313C83.0585 320.482 80.8978 326.478 73.9992 330.867C60.0751 339.723 45.2602 330.409 44 315L28 313M130.333 313.667L130.667 314.333L130.333 313.667M164 313L165 314L164 313M179 313L164 315C165.723 323.354 171.199 333.856 159 334L159 343L194 343L194 334C181.292 333.588 183.563 321.52 179 313M246 313L232 315L231 334L219 334L219 343L260 343L260 334C242.186 334 250.991 324.894 246 313M387 313C387 324.084 389.802 333.989 376 334L376 343L414 343L414 334C400.198 333.989 403 324.084 403 313L402 313C397.79 316.19 391.477 315.49 387 313M513 313L500 315L498.397 332.397L480 334L480 343L535 343L535 334L515 334L513 313M648 313C647.212 317.242 646.533 321.684 647.214 326C651.219 351.402 686.812 342.868 701 335C703.49 343.409 716.4 344.686 722.66 339.347C727.364 335.335 727.881 327.747 728 322L719 322C718.955 326.928 718.652 330.559 714 333L713 315L700 313L699 313C699 317.033 699.895 322.356 697.397 325.815C686.323 341.142 661.691 334.566 664 315C659.518 315 649.167 316.333 650 313L648 313M828 313L829 314L828 313M664 314L665 315L664 314M829 314C830.735 351.881 894.603 354.662 898 316L891 314C887.529 319.942 884.768 326.207 878.996 330.362C863.303 341.658 849.471 328.187 844 314L829 314M119 315C117.804 323.883 116.506 333.876 106 334L106 343L137 343L137 334C124.651 333.599 129.314 323.396 130 315L119 315M613 315C613 324.837 615.356 333.956 603 334L603 343L637 343L637 334C624.644 333.956 627 324.837 627 315L613 315M791 315C791 324.837 793.356 333.956 781 334L781 343L815 343L815 334C802.771 333.957 805 324.729 805 315L791 315z"/>
</svg>
